<?xml version="1.0" standalone="no"?>
<!DOCTYPE svg PUBLIC "-//W3C//DTD SVG 20010904//EN"
 "http://www.w3.org/TR/2001/REC-SVG-20010904/DTD/svg10.dtd">
<svg version="1.0" xmlns="http://www.w3.org/2000/svg"
 width="679.000000pt" height="281.000000pt" viewBox="0 0 679.000000 281.000000"
 preserveAspectRatio="xMidYMid meet">
<metadata>
Created by potrace 1.15, written by Peter Selinger 2001-2017
</metadata>
<g transform="translate(0.000000,281.000000) scale(0.100000,-0.100000)"
fill="#000000" stroke="none">
<path d="M5880 2798 c0 -10 -6 -15 -12 -13 -7 2 -176 6 -375 9 l-363 4 -1 -21
c0 -21 -1 -21 -8 -3 -7 17 -18 20 -80 22 l-72 1 4 -29 c1 -16 9 -33 17 -38 10
-7 11 -10 3 -10 -8 0 -11 -9 -10 -22 4 -26 48 -41 105 -36 34 3 38 6 43 38 5
27 7 29 8 10 1 -14 4 -34 7 -45 5 -19 1 -20 -75 -17 -53 2 -81 0 -81 -7 0 -12
38 -16 113 -12 41 3 47 0 47 -17 0 -11 3 -27 6 -36 3 -9 1 -16 -5 -16 -6 0
-11 12 -11 28 l0 27 -76 -3 c-71 -3 -75 -5 -72 -25 3 -20 11 -23 73 -28 l70
-5 -67 -2 c-38 -1 -68 -6 -68 -12 0 -5 30 -11 68 -13 l67 -3 -67 -2 c-38 -1
-68 -6 -68 -11 0 -12 17 -17 70 -20 25 -2 47 -5 50 -8 3 -2 -22 -3 -54 -2 -39
2 -61 -1 -64 -9 -3 -9 107 -11 452 -9 299 1 456 -1 456 -8 0 -7 -156 -9 -454
-7 l-454 3 0 -40 c-1 -28 5 -44 16 -51 13 -7 14 -11 4 -18 -9 -6 -3 -9 18 -11
16 -1 40 -2 53 -3 12 -1 30 -11 40 -23 17 -19 17 -19 15 -1 -2 14 4 20 22 23
52 8 105 8 118 -1 7 -5 18 -4 27 4 20 17 19 8 -6 -34 -27 -46 -5 -50 33 -6 14
17 32 30 40 30 8 -1 7 -5 -6 -15 -11 -8 -16 -21 -13 -30 9 -21 39 -19 35 3 -2
13 3 17 26 15 15 -1 35 5 43 13 8 8 23 12 32 9 24 -7 54 17 46 38 -6 13 -11
14 -26 6 -11 -5 -18 -13 -15 -17 2 -4 -4 -8 -15 -8 -24 0 -24 4 3 27 27 24 50
24 66 -1 14 -22 42 -26 60 -8 9 9 12 7 12 -11 0 -12 4 -20 9 -16 5 3 13 0 17
-6 4 -8 3 -9 -4 -5 -7 4 -12 1 -12 -10 0 -9 20 -36 44 -60 40 -41 63 -50 106
-44 24 3 81 61 98 100 11 26 17 30 20 18 4 -22 21 -23 28 -3 4 8 18 15 33 15
48 0 68 11 89 48 l20 37 -41 -1 c-31 -1 -34 0 -9 3 19 3 32 10 32 19 0 11 -17
14 -72 16 l-73 2 64 3 c37 3 73 11 85 20 19 14 15 15 -64 10 -53 -4 -77 -3
-65 3 11 5 44 9 73 9 79 1 62 21 -20 23 l-73 2 65 3 c94 6 101 23 10 24 -41 1
-61 4 -45 6 108 12 111 13 111 33 0 18 -7 20 -75 20 -41 0 -71 3 -68 6 9 9
147 24 277 30 57 3 107 8 110 11 3 3 -85 2 -195 -2 -195 -7 -257 2 -112 17
156 15 193 21 210 36 9 8 17 10 17 4 0 -6 -6 -13 -12 -15 -7 -3 4 -6 24 -6 27
-1 38 4 41 17 4 16 5 16 6 -1 1 -17 15 -18 238 -15 182 2 237 6 241 16 3 10 7
10 18 1 12 -10 14 -2 14 45 0 31 -4 56 -10 56 -5 0 -10 -10 -11 -22 l0 -23 -9
23 c-7 17 -17 22 -44 22 l-35 0 6 -50 c4 -37 2 -50 -7 -50 -8 0 -11 9 -8 25 3
14 2 28 -3 31 -4 2 -6 11 -2 19 3 9 -1 15 -8 16 -8 0 -37 1 -66 3 -44 2 -52
-1 -57 -18 -4 -17 -7 -17 -21 -6 -20 17 -55 20 -55 6 0 -6 -6 -4 -13 5 -18 23
-47 20 -48 -5 0 -15 -2 -17 -6 -6 -9 23 -19 26 -71 25 -37 -1 -46 -4 -44 -17
2 -12 -3 -15 -18 -11 -11 3 -17 10 -13 16 4 6 0 8 -10 4 -10 -4 -28 -2 -41 3
-17 6 -26 5 -30 -3 -3 -9 -5 -9 -5 1 -1 18 -29 14 -34 -5 -4 -16 -5 -16 -6 1
-1 12 -6 16 -17 12 -9 -3 -20 -6 -25 -6 -5 0 -9 -7 -9 -15 0 -9 6 -12 18 -9
14 5 15 4 2 -5 -18 -13 -53 -15 -46 -2 4 5 4 15 1 23 -4 11 -21 12 -78 7 -49
-5 -74 -3 -79 5 -5 7 -8 5 -8 -6z"/>
<path d="M4167 2793 c-9 -2 -15 -9 -12 -14 4 -5 1 -9 -4 -9 -6 0 -11 4 -11 9
0 5 -153 9 -345 10 -366 1 -352 3 -339 -46 6 -22 34 -33 34 -13 0 6 -4 10 -10
10 -5 0 -10 4 -10 9 0 4 11 6 25 3 14 -2 25 -8 25 -13 0 -18 18 -8 23 12 5 17
10 19 29 13 13 -4 47 -7 76 -7 41 1 52 -3 52 -16 1 -14 2 -14 11 2 6 11 22 17
44 17 18 0 36 6 38 13 3 6 6 4 6 -7 1 -10 9 -25 19 -32 16 -13 15 -15 -8 -35
l-25 -21 65 5 c36 3 66 6 67 6 1 1 0 8 -4 17 -4 12 -7 13 -14 3 -6 -11 -9 -10
-15 4 -3 9 -10 17 -16 17 -5 0 -6 -4 -3 -10 3 -5 0 -10 -7 -10 -8 0 -14 12
-15 28 0 15 1 20 4 11 2 -11 11 -15 23 -12 11 3 17 9 14 14 -3 5 0 9 6 9 7 0
9 -7 6 -16 -4 -11 -1 -14 12 -12 10 2 16 11 14 22 -3 15 1 17 30 11 45 -10 50
-14 43 -35 -3 -10 -2 -21 3 -24 5 -3 9 11 9 31 -1 20 4 38 11 41 8 2 11 -5 10
-19 -2 -13 3 -24 10 -25 6 -1 13 -3 15 -4 1 -1 14 -4 29 -5 20 -3 25 0 21 11
-3 8 -9 14 -14 14 -5 0 -9 7 -9 15 0 8 7 15 15 15 8 0 15 -4 15 -10 0 -5 9
-10 20 -10 11 0 20 -4 20 -8 0 -4 9 -8 20 -8 15 0 20 7 20 28 0 15 -1 27 -2
27 -2 -1 -11 -3 -21 -6z"/>
<path d="M235 2783 c-11 -1 -68 -5 -128 -8 l-107 -7 0 -60 0 -60 114 6 c160 9
494 8 509 -1 7 -4 44 -11 82 -14 39 -3 -87 -6 -280 -7 -192 -1 -367 -3 -387
-3 -21 0 -38 -4 -38 -9 0 -4 143 -8 318 -7 174 0 353 -5 397 -10 l80 -10 -77
-1 c-75 -2 -78 -3 -74 -24 3 -20 10 -24 67 -29 l64 -6 -62 -1 c-84 -3 -82 -22
2 -22 36 0 65 -4 65 -8 0 -5 -30 -7 -66 -5 -54 2 -65 0 -61 -12 5 -12 -26 -14
-206 -14 -117 0 -256 -3 -309 -6 -60 -4 -105 -2 -117 5 -16 8 -20 7 -18 -8 1
-18 12 -18 207 -13 339 9 580 1 580 -20 0 -5 -50 -8 -112 -8 -81 0 -113 -3
-119 -13 -7 -10 -9 -9 -9 3 0 13 -10 17 -50 17 -27 0 -50 -5 -50 -10 0 -5 -5
-6 -12 -2 -13 9 -178 12 -178 4 0 -3 -58 -5 -130 -4 l-130 0 0 -57 c0 -40 4
-58 14 -62 16 -6 348 0 533 9 l112 6 -30 29 c-30 30 -40 65 -15 56 8 -3 16 -1
18 5 7 21 30 -4 24 -26 -3 -12 1 -32 9 -43 8 -11 12 -23 9 -25 -3 -3 16 -6 42
-6 29 -1 54 -8 65 -18 18 -16 19 -16 19 -1 0 12 8 17 26 17 22 0 25 -2 14 -15
-10 -12 -8 -19 11 -40 26 -26 61 -37 40 -11 -6 7 -8 22 -4 31 5 15 3 17 -12
12 -15 -6 -16 -5 -5 8 10 12 15 13 21 4 6 -10 11 -10 22 0 12 9 16 9 20 -1 4
-10 8 -10 17 2 10 13 11 12 6 -3 -3 -10 -6 -21 -6 -24 0 -3 -7 0 -15 7 -21 18
-53 -14 -35 -36 11 -13 16 -13 37 1 21 14 24 14 29 0 3 -8 11 -12 17 -8 6 3 7
1 3 -6 -4 -6 -2 -18 4 -26 13 -16 55 -21 45 -6 -3 5 0 13 6 17 8 4 9 3 5 -4
-4 -7 -1 -12 6 -12 7 0 19 -9 26 -21 10 -16 20 -20 40 -16 15 3 40 -2 55 -10
40 -20 59 -2 30 29 -11 13 -24 39 -28 58 -4 19 -12 44 -18 55 -15 26 -17 55
-5 55 6 0 8 -6 5 -13 -7 -20 30 -40 51 -28 13 7 23 4 39 -11 13 -12 26 -18 30
-14 4 4 1 11 -7 16 -8 5 -11 12 -7 17 5 4 12 2 16 -5 6 -10 11 -10 21 2 10 13
9 19 -11 35 l-23 18 22 7 c27 9 62 -9 62 -31 0 -14 -4 -13 -20 5 -12 12 -26
22 -32 22 -6 0 -1 -11 11 -24 16 -17 33 -23 61 -23 28 0 48 7 66 23 27 26 44
31 44 13 0 -14 -12 -23 -105 -88 -84 -58 -225 -203 -255 -261 -27 -53 -21 -90
15 -90 44 0 214 74 230 100 6 10 86 1 102 -12 15 -12 29 -4 36 21 4 17 2 18
-19 11 -15 -6 -26 -5 -30 2 -4 6 -3 8 3 5 16 -10 25 40 13 63 -6 11 -20 20
-31 20 -23 0 -79 -51 -79 -73 0 -9 -19 -18 -52 -26 -55 -12 -108 -44 -91 -54
5 -3 37 7 71 23 34 16 62 27 62 24 0 -9 -150 -76 -161 -72 -13 4 59 113 104
156 l35 34 22 -22 22 -22 22 21 c12 12 30 21 39 21 17 0 74 87 63 97 -9 10
-34 -16 -41 -45 -7 -25 -8 -25 -15 -7 -13 30 -13 30 30 54 36 20 40 20 40 5 0
-9 -12 -37 -26 -61 -25 -42 -29 -68 -6 -41 15 19 72 134 72 146 0 5 7 15 15
22 12 10 15 9 15 -5 0 -16 2 -17 18 -3 15 14 32 18 93 19 9 0 16 6 17 12 1 7
4 24 8 39 5 20 2 27 -13 31 -16 4 -16 5 0 6 9 0 17 8 17 16 0 12 -15 15 -72
15 -87 0 -84 12 3 14 40 1 64 5 66 14 4 9 -14 12 -65 12 -76 0 -102 6 -102 23
0 7 4 7 12 -1 15 -15 148 -16 148 -2 0 6 -28 10 -65 10 -36 0 -65 3 -65 8 0 4
28 7 62 7 39 0 63 4 65 12 3 9 -17 13 -69 16 l-73 3 73 2 c65 2 72 4 72 22 0
18 -7 20 -70 20 -102 0 -86 16 23 23 147 9 163 25 20 19 -88 -3 -123 -2 -123
7 0 7 24 11 68 11 77 1 153 16 164 33 12 19 9 30 -8 23 -8 -3 -13 -2 -9 3 3 5
-1 12 -7 14 -9 4 -8 6 2 6 9 1 15 11 15 27 0 23 -3 25 -33 19 -18 -3 -40 -9
-48 -12 -8 -3 -14 0 -14 7 0 9 -104 11 -455 8 -250 -1 -455 -7 -455 -11 0 -5
-5 -5 -11 -2 -15 10 -149 11 -149 2 0 -5 -6 -5 -12 0 -12 7 -325 21 -373 16z"/>
<path d="M2038 2782 c-124 -1 -218 -6 -218 -12 0 -5 4 -20 9 -33 8 -20 6 -27
-7 -32 -13 -5 -11 -9 14 -24 16 -10 36 -17 46 -15 9 1 86 4 171 5 102 2 153 7
151 14 -5 12 -54 16 -54 4 0 -5 -10 -9 -23 -9 -14 0 -24 6 -24 15 0 18 17 20
17 3 1 -8 7 -5 15 6 9 12 21 17 35 13 16 -4 20 -2 16 9 -3 8 -1 14 4 14 6 0
10 -4 10 -10 0 -5 6 -10 14 -10 9 0 12 -8 8 -26 l-5 -26 114 5 c133 6 130 6
104 17 -17 7 -17 9 -2 9 9 1 17 8 17 17 0 14 -3 14 -15 4 -9 -8 -15 -9 -15 -2
0 33 45 21 54 -14 5 -20 13 -24 44 -25 20 -1 48 -3 62 -4 14 -1 31 0 37 2 14
6 18 33 5 33 -4 0 -8 11 -8 25 0 18 4 24 16 20 8 -3 21 4 28 15 11 17 10 20
-7 20 -11 0 -22 -6 -25 -12 -5 -10 -7 -10 -12 0 -7 14 -44 17 -44 3 0 -5 6
-12 13 -14 7 -3 5 -6 -5 -6 -10 -1 -18 6 -18 15 0 13 -20 15 -152 12 -84 -2
-251 -4 -370 -6z"/>
<path d="M2894 2774 c3 -9 6 -22 6 -30 0 -7 15 -17 33 -22 22 -6 31 -14 29
-25 -5 -27 15 -20 22 8 12 48 42 27 37 -25 -1 -12 1 -11 12 3 16 20 75 23 82
5 6 -15 145 -12 145 3 0 5 -9 9 -21 9 -12 0 -19 5 -16 13 2 6 12 11 22 9 12
-2 15 1 9 10 -6 10 -4 10 9 -1 15 -12 17 -11 17 7 0 11 3 27 6 35 4 12 -8 15
-70 16 -63 1 -75 -2 -79 -16 -4 -15 -5 -15 -6 -2 -1 13 -12 16 -53 14 -29 -1
-66 -6 -81 -10 -18 -5 -33 -3 -40 4 -6 6 -24 11 -40 11 -22 0 -28 -4 -23 -16z"/>
<path d="M6560 2455 c-7 -8 -22 -16 -34 -16 -16 -1 -13 -3 9 -9 17 -4 24 -8
18 -9 -7 0 -13 -9 -13 -18 -1 -16 -2 -16 -15 1 -12 16 -15 17 -15 4 0 -9 -9
-18 -19 -21 -17 -4 -21 1 -24 37 -4 41 -4 41 -6 -9 l-3 -50 -13 50 -14 50 6
-60 c3 -33 7 -61 8 -63 1 -1 48 -3 105 -3 87 0 104 2 116 18 18 24 18 38 -1
23 -20 -17 -32 -5 -15 15 7 8 10 15 6 15 -4 0 0 11 9 24 15 23 15 23 -28 23
-25 0 -49 3 -55 6 -5 4 -15 0 -22 -8z"/>
<path d="M5486 2289 c-38 -16 -84 -40 -102 -54 -36 -28 -118 -36 -127 -12 -4
10 -7 10 -18 0 -10 -10 -10 -16 -1 -25 7 -7 12 -22 12 -34 0 -33 11 -55 23
-47 5 3 7 1 3 -5 -3 -6 -1 -12 6 -15 7 -2 4 -3 -8 -1 -17 3 -27 -8 -52 -58
-18 -33 -32 -69 -32 -79 0 -9 -6 -19 -12 -22 -10 -3 -10 -10 1 -30 17 -32 39
-34 74 -7 14 11 29 20 34 20 29 0 220 177 274 254 49 69 60 111 37 134 -17 17
-34 14 -112 -19z"/>
<path d="M714 2279 c-3 -5 -9 -7 -14 -4 -4 3 -15 -7 -25 -21 -21 -32 -6 -54
19 -28 9 9 20 14 23 10 3 -3 12 -1 20 5 9 8 13 8 13 0 0 -6 -11 -13 -25 -17
-29 -7 -56 -34 -33 -34 8 0 20 6 28 13 12 10 12 9 1 -5 -7 -10 -12 -18 -10
-19 35 -7 47 -5 66 13 13 12 23 27 23 35 0 23 15 14 29 -18 11 -25 11 -36 2
-50 -19 -32 -14 -59 13 -59 26 0 51 -24 41 -40 -10 -15 -25 -12 -25 6 0 11 -5
14 -16 10 -9 -3 -18 -6 -20 -6 -2 0 -4 -7 -4 -15 0 -8 7 -15 15 -15 9 0 12 -6
9 -15 -4 -8 -10 -12 -15 -9 -5 3 -9 -6 -9 -20 0 -31 16 -34 25 -6 3 11 19 29
36 40 34 25 38 54 9 72 -32 20 -24 28 29 28 52 0 121 -25 171 -61 16 -13 33
-19 37 -15 4 4 -2 15 -15 24 -17 13 -20 20 -11 29 17 17 1 37 -17 22 -7 -6
-11 -15 -8 -20 3 -5 -18 3 -47 17 -34 18 -47 29 -39 34 7 4 10 13 6 18 -9 14
-39 3 -33 -12 3 -7 -15 -11 -54 -11 -38 0 -55 3 -48 10 5 5 15 10 22 10 7 0
12 5 12 10 0 6 -6 9 -13 9 -6 -1 -23 11 -36 27 -14 16 -29 29 -35 29 -5 0 -17
7 -26 16 -19 19 -62 27 -71 13z"/>
<path d="M5843 2203 c-24 -22 -43 -48 -43 -56 0 -9 12 -24 27 -35 l28 -20 -28
-7 c-37 -10 -150 28 -198 66 -43 33 -60 28 -21 -7 15 -13 21 -24 15 -24 -18 0
-16 -30 2 -30 8 0 15 7 15 15 0 12 8 11 45 -7 35 -17 44 -26 39 -40 -4 -12 0
-18 11 -18 10 0 15 6 12 13 -3 9 11 12 57 12 48 0 60 -3 51 -12 -7 -6 -18 -11
-26 -10 -21 3 -23 -17 -2 -21 10 -2 28 -13 41 -25 12 -11 22 -19 23 -16 0 2 2
12 4 22 2 9 -1 15 -6 11 -13 -8 -23 24 -11 39 5 6 12 24 15 38 6 23 4 26 -17
22 -28 -6 -63 24 -47 40 8 8 15 5 24 -8 8 -10 19 -15 25 -11 16 10 15 33 0 39
-10 3 -10 7 0 20 8 9 12 24 10 34 -2 15 -11 11 -45 -24z"/>
<path d="M5503 2084 c-7 -3 -3 -14 12 -30 13 -13 26 -41 30 -62 7 -41 34 -89
63 -115 17 -16 20 -16 32 -2 15 18 34 19 60 3 15 -10 22 -9 38 5 11 10 35 17
58 17 40 0 84 22 84 42 0 20 -45 58 -69 58 -14 0 -33 -7 -42 -16 -17 -16 -19
-15 -28 8 -13 34 -37 51 -66 45 -19 -3 -29 1 -36 15 -8 15 -18 19 -37 15 -16
-3 -35 1 -46 9 -20 14 -32 16 -53 8z"/>
<path d="M890 2004 c-45 -39 -67 -89 -74 -176 -6 -70 -4 -81 16 -111 25 -39
76 -77 102 -77 28 0 71 27 105 65 30 35 39 55 23 55 -4 0 -14 -6 -22 -12 -12
-11 -12 -10 -1 5 20 26 4 34 -17 9 -14 -16 -22 -18 -30 -10 -7 7 -12 17 -12
23 0 5 5 3 10 -5 8 -13 11 -13 27 2 9 10 13 21 9 25 -4 4 -11 1 -16 -7 -6 -8
-10 -11 -10 -7 0 5 12 24 26 43 15 19 24 38 20 41 -4 4 -11 2 -15 -5 -6 -10
-11 -10 -21 3 -9 11 -10 18 -1 29 7 8 8 17 3 20 -5 3 -17 -5 -27 -16 -12 -15
-14 -23 -7 -26 7 -2 12 -9 12 -15 0 -6 -8 -4 -17 6 -16 16 -16 18 5 39 l21 23
-47 2 c-70 2 -78 4 -79 26 -2 17 0 18 15 4 9 -8 24 -14 32 -14 8 -1 24 -4 34
-9 15 -5 17 -4 11 6 -6 9 -4 11 4 6 7 -5 20 -1 29 7 15 14 19 13 37 -11 13
-19 14 -23 3 -14 -21 17 -30 2 -13 -22 8 -10 19 -15 26 -10 8 5 10 3 4 -6 -4
-7 -2 -16 6 -21 10 -7 11 -11 3 -16 -15 -10 -12 -75 4 -81 7 -2 12 5 12 17 0
24 3 25 29 9 41 -26 71 41 33 75 -16 15 -20 15 -40 1 -21 -14 -22 -14 -22 8 0
35 -54 114 -89 132 -42 22 -65 20 -101 -10z"/>
<path d="M1606 2006 c-33 -30 -33 -59 0 -85 l26 -20 -29 -25 c-15 -14 -31 -26
-35 -26 -5 0 -8 -5 -8 -11 0 -5 5 -7 10 -4 6 3 10 -1 10 -9 0 -8 12 -24 27
-36 l27 -21 -25 -17 c-13 -9 -33 -16 -44 -15 -16 1 -16 1 -2 -3 10 -3 17 -15
17 -29 0 -31 25 -55 56 -55 32 0 66 18 59 31 -4 5 -1 8 6 7 7 -2 15 5 17 15 4
21 -26 24 -34 3 -3 -8 -14 -12 -27 -9 -22 4 -22 4 -3 -11 11 -9 15 -16 10 -16
-14 0 -34 21 -34 36 0 7 8 10 20 7 22 -6 53 14 44 29 -3 5 -12 4 -20 -3 -12
-10 -13 -9 -8 5 8 21 -4 21 -27 0 -17 -16 -18 -15 -6 10 7 14 18 26 25 26 6 0
12 4 12 10 0 5 7 7 15 4 22 -9 18 14 -4 26 -27 14 -51 13 -31 -1 12 -8 12 -10
1 -7 -8 2 -15 11 -17 19 -1 11 5 15 20 12 13 -3 28 2 36 11 20 25 3 32 -22 10
-19 -16 -20 -16 -9 -1 20 25 5 33 -21 11 -18 -15 -20 -16 -9 -2 7 10 11 28 8
39 -4 17 -3 19 6 10 16 -16 30 -13 23 5 -5 14 -4 15 9 4 9 -7 19 -10 23 -6 4
4 -2 14 -12 22 -19 13 -19 14 -1 34 10 11 15 23 11 28 -4 4 -19 -6 -32 -21
-13 -15 -24 -25 -24 -21 0 4 8 16 17 26 15 17 15 20 3 28 -21 14 -26 13 -54
-14z"/>
<path d="M5890 1915 c-1 -5 -2 -13 -1 -17 0 -4 -11 -16 -25 -27 l-25 -20 21
-11 c12 -6 20 -14 17 -17 -8 -7 -47 20 -47 33 0 6 12 16 26 23 15 6 24 14 21
17 -3 3 -14 1 -25 -5 -12 -6 -40 -11 -64 -11 -24 0 -49 -5 -56 -12 -9 -9 -17
-9 -36 1 -18 10 -28 10 -46 1 -25 -13 -25 -13 15 -34 26 -14 27 -16 8 -16 -12
0 -25 5 -28 10 -12 20 -35 9 -60 -28 -15 -23 -23 -46 -19 -55 7 -18 24 -23 24
-7 0 6 -5 10 -11 10 -5 0 -7 5 -3 11 5 8 9 8 14 -1 4 -7 13 -9 20 -5 9 5 11 4
6 -3 -4 -7 -1 -21 7 -32 14 -20 14 -20 32 0 15 16 15 22 5 35 -7 8 -21 15 -32
15 -22 0 -35 27 -21 41 7 7 17 6 32 -2 16 -11 27 -11 53 -1 20 7 36 8 41 3 15
-15 0 -41 -23 -41 -12 0 -18 -4 -15 -10 3 -6 -1 -7 -10 -4 -11 5 -14 2 -9 -10
8 -21 23 -20 41 2 8 9 12 11 8 4 -4 -7 -1 -21 7 -30 11 -15 11 -15 -3 -5 -12
10 -18 9 -31 -7 -9 -10 -13 -22 -10 -27 4 -4 -2 0 -14 10 -20 16 -21 16 -34
-7 -14 -28 -43 -44 -33 -20 8 22 -14 17 -31 -8 -9 -12 -16 -17 -16 -10 0 16
-21 15 -44 -3 -18 -13 -18 -15 -2 -21 10 -4 29 -1 44 6 15 7 37 12 49 11 11
-1 27 6 35 16 8 13 25 19 48 18 30 0 37 5 51 32 15 30 17 31 37 17 30 -21 28
-2 -3 24 -14 12 -25 28 -25 34 0 9 3 8 10 -2 8 -13 11 -12 25 5 9 11 14 15 11
8 -8 -15 14 -29 23 -15 4 7 11 6 23 -2 15 -11 15 -14 -3 -36 -15 -20 -19 -22
-19 -7 0 9 -4 17 -10 17 -15 0 -12 -16 6 -30 13 -11 19 -9 41 12 16 16 23 32
20 42 -8 20 -48 36 -91 36 -19 0 -39 7 -46 15 -7 9 -19 14 -27 11 -7 -3 -13
-1 -13 4 0 14 13 12 46 -4 16 -9 39 -12 56 -9 21 4 38 0 58 -16 16 -11 35 -21
42 -21 6 0 3 7 -8 15 -14 10 -15 14 -5 15 11 0 9 4 -4 14 -19 14 -19 15 -1 34
10 11 16 29 13 39 -3 10 -6 14 -7 8z"/>
<path d="M1444 1869 c-14 -14 -36 -21 -62 -22 -35 -2 -43 -6 -53 -29 -14 -35
-57 -64 -72 -49 -6 6 -21 11 -34 11 -13 0 -22 5 -20 11 4 19 -22 22 -29 4 -9
-21 14 -36 43 -29 15 4 26 0 34 -14 10 -16 17 -18 32 -11 24 14 48 4 41 -16
-4 -9 0 -15 9 -15 27 0 31 22 7 42 -18 15 -19 18 -5 18 9 0 29 -13 43 -30 24
-27 52 -40 52 -24 0 19 -46 65 -73 73 l-32 9 29 1 c16 1 37 -6 47 -15 17 -15
39 -12 39 5 0 10 -43 28 -80 34 -18 3 -14 5 12 6 26 1 45 -6 67 -25 17 -14 35
-23 41 -19 17 11 11 21 -22 36 l-31 15 32 14 c17 7 30 17 28 23 -6 19 -22 18
-43 -4z"/>
<path d="M5182 1807 c-8 -10 -7 -24 6 -53 34 -78 67 -137 80 -142 7 -2 4 11
-9 35 -21 38 -21 38 0 13 11 -14 21 -28 21 -32 0 -5 6 -8 14 -8 7 0 25 -9 39
-20 31 -24 31 -24 53 -3 16 16 21 13 85 -55 37 -40 70 -72 73 -72 14 0 4 31
-14 42 -11 7 -20 21 -20 30 0 10 -5 18 -10 18 -6 0 -20 11 -32 25 -12 14 -27
25 -34 25 -6 0 -14 9 -17 20 -3 11 -14 20 -25 20 -11 0 -22 9 -25 20 -3 11
-14 20 -25 20 -11 0 -22 9 -25 20 -3 14 -14 20 -31 20 -16 0 -26 6 -26 14 0
19 -30 29 -46 15 -12 -10 -13 -9 -8 5 8 21 39 21 56 -1 7 -10 22 -18 33 -18
11 0 24 -10 30 -22 5 -13 17 -23 26 -23 19 0 42 -24 32 -33 -3 -4 3 -7 14 -7
10 0 29 -11 41 -25 12 -14 26 -25 32 -25 5 0 10 -6 10 -14 0 -8 9 -18 20 -21
11 -3 20 -14 20 -23 0 -10 9 -23 20 -30 11 -7 20 -18 20 -26 0 -7 9 -21 20
-31 22 -20 26 -40 10 -50 -6 -4 -9 4 -7 17 1 17 -4 24 -20 26 -17 3 -20 -1
-16 -17 5 -20 3 -20 -28 -9 -25 9 -29 13 -16 16 30 6 14 26 -34 42 -71 25 -76
28 -36 23 43 -7 51 11 12 29 -13 6 -22 15 -18 21 8 13 -16 25 -39 19 -15 -4
-18 -10 -13 -31 5 -24 4 -24 -16 7 -11 17 -25 32 -31 32 -5 0 -7 -4 -4 -8 3
-5 -4 -16 -15 -25 -16 -14 -19 -14 -19 -2 0 8 4 15 9 15 17 0 21 31 4 37 -21
8 -43 -23 -43 -62 0 -17 -6 -37 -12 -43 -18 -18 10 -36 30 -20 24 20 75 16
119 -9 42 -24 158 -71 200 -80 17 -4 23 0 28 20 15 59 -102 203 -260 322 -111
83 -159 102 -183 72z"/>
<path d="M1113 1759 c-36 -36 12 -125 134 -247 53 -54 95 -101 94 -105 -1 -5
3 -6 9 -2 6 4 39 -10 74 -29 73 -41 96 -44 113 -17 11 17 6 32 -31 103 -38 71
-47 83 -67 81 l-24 -3 23 10 c22 10 26 18 22 58 -1 12 6 25 14 28 9 3 16 15
16 25 0 20 -15 26 -25 9 -9 -15 -101 -12 -114 3 -14 18 -157 85 -196 92 -18 4
-35 1 -42 -6z m39 -34 c-3 -20 0 -25 17 -25 18 0 20 -4 15 -25 -5 -19 -1 -27
12 -32 11 -5 19 -17 19 -28 0 -11 9 -21 20 -25 11 -3 20 -12 20 -20 0 -8 10
-16 23 -18 29 -4 28 0 -10 42 -18 20 -46 58 -61 86 -25 44 -26 50 -10 50 10 0
25 -5 33 -10 13 -8 12 -10 -2 -10 -10 0 -18 -4 -18 -9 0 -14 22 -27 65 -41 22
-7 44 -16 49 -21 5 -4 -7 -3 -27 3 -21 6 -40 8 -44 4 -12 -12 28 -36 59 -36
22 0 28 5 28 23 0 16 -12 28 -45 46 -25 13 -43 26 -41 28 2 3 24 -7 49 -21 34
-20 46 -34 51 -58 3 -18 16 -43 29 -57 l22 -26 -22 19 c-22 18 -23 18 -58 -4
-38 -23 -42 -43 -9 -48 11 -2 24 -13 29 -25 6 -12 20 -23 31 -25 12 -2 24 -12
27 -24 5 -16 12 -19 31 -16 14 3 26 1 26 -3 0 -16 -49 -9 -62 9 -7 9 -25 23
-40 29 -16 7 -28 17 -28 23 0 5 -5 10 -11 10 -15 0 -79 62 -79 76 0 7 -9 14
-20 17 -11 3 -20 12 -20 21 0 9 -9 26 -20 38 -11 12 -20 27 -20 34 0 6 -7 14
-15 18 -18 7 -20 42 -2 49 6 3 13 6 13 6 1 1 -1 -10 -4 -24z"/>
<path d="M704 1736 c-11 -6 -19 -17 -16 -25 3 -8 0 -11 -7 -7 -7 5 -11 -1 -11
-13 0 -24 15 -28 27 -7 5 9 15 11 28 5 19 -7 19 -8 -1 -8 -25 -1 -56 -31 -32
-31 8 0 20 6 28 13 12 10 12 9 1 -5 -7 -10 -12 -18 -10 -19 40 -8 49 -6 69 16
l23 25 17 -28 c12 -18 14 -31 8 -39 -11 -14 -4 -43 11 -43 5 0 13 9 16 21 5
15 10 18 18 10 7 -7 5 -16 -8 -31 -21 -23 -41 -26 -48 -7 -2 6 -4 -4 -3 -23 1
-19 5 -38 11 -42 5 -4 0 -17 -13 -31 -32 -34 -27 -40 13 -15 34 23 47 48 23
48 -6 0 -9 2 -6 5 10 10 37 -7 32 -20 -4 -9 4 -12 28 -11 18 1 31 6 28 11 -3
6 -13 9 -23 8 -10 -2 -16 1 -13 6 3 5 19 11 35 13 21 3 28 1 24 -9 -3 -8 2
-13 12 -13 11 0 15 5 12 14 -4 10 11 24 46 44 67 38 104 68 94 78 -4 4 -17 -2
-30 -13 -33 -30 -56 -40 -26 -11 42 39 53 101 13 67 -15 -13 -43 -67 -45 -86
0 -8 -38 -32 -51 -33 -3 0 7 13 23 29 26 27 40 71 22 71 -11 -1 -66 -80 -66
-96 0 -7 -4 -11 -8 -8 -4 2 -11 0 -14 -6 -7 -12 -75 -10 -75 2 0 4 6 11 13 15
6 4 18 16 26 26 13 16 7 25 -65 92 -79 76 -93 82 -130 61z"/>
<path d="M5875 1710 c-10 -11 -16 -29 -13 -42 4 -22 1 -23 -53 -23 -41 0 -55
3 -52 13 3 7 -2 12 -12 12 -12 0 -16 -6 -12 -20 6 -23 -8 -27 -17 -5 -3 8 -10
15 -16 15 -14 0 -13 -27 3 -33 6 -2 -4 -11 -24 -21 -41 -19 -86 -62 -76 -73 4
-3 20 5 35 20 23 22 89 57 107 57 4 0 -7 -12 -24 -26 -31 -25 -40 -57 -21 -69
5 -3 18 12 29 34 12 22 25 43 31 46 6 4 8 10 5 15 -7 11 30 19 45 10 8 -5 4
-9 -12 -13 -24 -6 -55 -54 -43 -66 4 -3 24 13 45 37 21 23 44 42 52 42 7 0 1
-10 -14 -21 -38 -28 -36 -55 7 -80 19 -11 37 -30 41 -41 4 -14 9 -17 16 -10 8
8 6 19 -6 37 -15 22 -15 26 -1 31 23 9 18 31 -7 30 -13 -1 -22 -7 -20 -14 3
-18 -18 -14 -25 4 -7 19 24 47 43 40 20 -8 25 36 7 56 -14 16 -14 22 -3 43 17
32 8 41 -15 15z"/>
<path d="M1155 1528 c-11 -7 -34 -11 -52 -10 -22 2 -35 -3 -42 -15 -6 -12 -22
-18 -48 -18 -32 0 -40 -4 -53 -31 -15 -29 -17 -30 -38 -16 -16 11 -22 11 -22
2 0 -10 -3 -10 -14 0 -12 9 -21 7 -45 -11 -17 -13 -31 -26 -31 -31 0 -12 55
-37 99 -44 22 -4 46 -13 53 -22 12 -13 10 -14 -11 -3 -13 7 -34 11 -48 8 -15
-3 -37 4 -59 19 -19 13 -37 24 -39 24 -11 0 -4 -33 11 -47 8 -9 13 -22 10 -29
-7 -17 6 -18 22 -2 7 7 12 8 12 2 0 -6 -12 -16 -26 -22 -14 -7 -23 -9 -21 -5
3 5 1 17 -4 28 -6 16 -8 12 -8 -17 -1 -21 1 -38 4 -38 2 0 19 9 36 19 21 13
42 18 61 14 17 -3 37 1 51 10 17 11 28 12 38 5 11 -8 11 -9 -3 -5 -9 3 -22 -1
-28 -9 -7 -8 -27 -14 -46 -14 -67 0 -117 -38 -83 -64 9 -6 18 -19 22 -28 8
-22 21 -23 58 -1 15 9 30 15 31 12 2 -2 10 -17 19 -34 12 -24 21 -30 49 -30
22 0 42 -8 57 -23 17 -17 27 -21 36 -14 8 7 18 6 31 -4 11 -8 30 -14 43 -14
32 0 29 -10 -16 -54 -54 -53 -96 -138 -81 -165 6 -12 17 -21 26 -21 25 0 170
59 209 85 39 27 112 34 133 13 9 -9 15 -9 25 1 10 10 9 15 -3 24 -26 19 -19
94 12 147 15 25 37 69 49 98 18 42 24 50 31 38 9 -17 28 -13 28 5 0 15 -70 41
-94 35 -34 -8 -186 -113 -238 -164 l-47 -45 -20 24 c-22 25 -24 30 -41 96 -6
23 -23 57 -38 74 l-27 32 44 -7 c58 -9 70 -17 41 -28 -18 -7 -21 -11 -11 -21
9 -9 16 -9 30 0 13 8 22 8 29 1 7 -7 17 -6 32 2 18 9 21 9 15 0 -5 -8 -3 -11
5 -8 22 7 21 22 -2 37 -18 11 -23 11 -33 -2 -9 -13 -14 -12 -37 8 -18 15 -23
25 -15 28 7 3 1 6 -13 7 -25 1 -24 1 5 14 17 7 38 22 47 33 17 18 16 19 -22
20 -30 2 -40 -2 -40 -14 0 -10 6 -13 18 -9 16 7 16 6 1 -9 -9 -9 -35 -19 -57
-22 -23 -3 -49 -14 -58 -24 -9 -11 -22 -19 -28 -19 -6 0 -3 5 7 11 24 14 21
26 -10 37 -23 9 -24 11 -7 11 11 1 25 -4 30 -9 6 -6 18 -8 28 -4 24 9 72 83
80 123 l6 34 -30 -31 c-17 -18 -33 -32 -37 -32 -3 0 4 11 16 24 13 14 18 26
13 30 -6 3 -19 -4 -29 -17 -10 -13 -25 -27 -33 -32 -8 -4 -5 3 8 17 29 32 16
45 -17 16 l-25 -23 25 32 c23 30 40 42 38 26 -4 -24 4 -24 33 3 18 16 25 19
15 7 -27 -31 -6 -36 31 -7 45 35 26 60 -23 32z"/>
<path d="M5713 1478 c-34 -37 -63 -88 -63 -114 0 -14 -3 -14 -15 -4 -23 19
-65 -3 -65 -34 0 -34 26 -53 51 -38 26 17 26 17 32 -30 7 -55 79 -128 126
-128 37 0 82 37 107 87 26 53 28 166 3 215 -42 83 -121 104 -176 46z m13 -17
c-8 -12 21 -34 34 -26 5 3 10 2 10 -3 0 -15 53 -5 66 12 6 9 14 16 18 16 12 0
6 -38 -9 -50 -8 -7 -12 -17 -9 -22 4 -6 9 -6 14 2 5 9 9 9 14 1 4 -6 2 -11 -3
-11 -6 0 -11 -5 -11 -10 0 -6 7 -10 16 -8 10 2 18 -3 20 -10 1 -7 0 -8 -3 -2
-3 7 -11 3 -20 -9 -8 -12 -11 -27 -8 -34 4 -6 -3 -1 -14 13 -19 23 -22 23 -31
8 -6 -9 -18 -24 -26 -33 -9 -9 -13 -19 -9 -23 4 -4 15 4 26 17 11 13 21 22 24
19 2 -2 -7 -17 -21 -33 -18 -21 -27 -26 -33 -17 -6 9 -12 8 -25 -7 -16 -18
-16 -19 26 -14 38 4 46 1 68 -23 21 -25 22 -26 2 -10 -23 20 -82 30 -82 14 0
-5 -4 -7 -9 -3 -5 3 -16 -2 -24 -10 -18 -17 -31 -20 -22 -5 3 6 2 10 -3 10
-14 0 -45 52 -36 59 5 3 16 15 24 25 14 18 13 19 -9 13 l-23 -6 23 25 c12 13
19 27 15 31 -4 4 -11 1 -16 -7 -5 -8 -12 -11 -17 -7 -4 5 -2 12 5 16 7 4 10
15 7 23 -4 10 3 23 19 35 14 11 23 23 20 26 -6 6 4 27 12 27 3 0 3 -4 0 -9z"/>
<path d="M707 1483 c-9 -2 -15 -8 -12 -13 3 -4 -4 -6 -15 -3 -25 7 -26 -5 -2
-23 15 -12 15 -15 2 -24 -8 -5 -19 -10 -25 -10 -5 1 -2 5 9 11 15 9 16 13 5
20 -8 5 -17 9 -21 9 -11 0 -10 -32 2 -50 8 -12 13 -13 29 -3 17 11 19 10 15
-1 -3 -8 2 -16 13 -18 15 -4 12 -7 -12 -19 -35 -16 -45 -27 -45 -53 0 -12 5
-16 14 -13 9 4 13 1 10 -7 -3 -8 9 -17 31 -23 32 -10 38 -9 59 10 29 28 46
147 21 147 -8 0 -15 9 -15 19 0 11 -7 27 -16 35 -16 17 -17 17 -47 9z"/>
<path d="M5310 1445 c0 -18 38 -60 65 -71 28 -12 28 -13 6 -14 -14 0 -32 7
-42 16 -20 18 -43 9 -34 -13 4 -12 2 -13 -7 -6 -7 6 -23 13 -35 15 -29 8 -21
-13 14 -34 l27 -16 -27 -13 c-15 -7 -27 -18 -27 -26 0 -18 20 -17 41 3 16 15
17 14 12 -5 -6 -25 18 -29 37 -6 7 8 24 15 39 14 24 0 24 -1 -10 -15 -34 -14
-77 -69 -65 -82 4 -3 21 9 39 26 18 18 42 32 52 31 17 0 17 -1 -3 -10 -15 -5
-22 -15 -20 -26 4 -23 34 -24 30 -2 -3 20 32 31 48 15 8 -8 14 -7 21 7 6 9 21
17 34 17 34 0 55 10 55 26 0 8 -9 14 -20 14 -13 0 -18 -5 -14 -15 4 -11 2 -13
-9 -9 -9 3 -25 1 -36 -5 -28 -15 -64 3 -78 40 -8 20 -18 29 -35 29 -12 0 -30
5 -38 10 -11 8 -6 9 20 8 19 -2 38 -7 42 -13 5 -6 8 -6 8 2 0 7 16 24 35 39
27 20 39 24 47 16 7 -7 22 -12 35 -12 16 0 21 -4 17 -15 -8 -20 10 -19 27 1
10 13 10 17 -2 25 -8 5 -24 8 -36 6 -13 -2 -28 2 -34 9 -7 8 -22 11 -40 7 -25
-5 -31 -2 -36 16 -6 24 -26 23 -31 -1 -2 -8 7 -20 20 -26 18 -8 19 -11 6 -11
-10 -1 -31 13 -48 29 -28 27 -50 38 -50 25z"/>
<path d="M5560 1250 c-8 -5 -52 -25 -98 -46 -45 -20 -87 -43 -93 -51 -14 -16
-81 -17 -96 -2 -7 7 -19 9 -29 5 -16 -6 -16 -8 0 -25 9 -10 16 -31 14 -47 -2
-37 8 -54 32 -54 27 0 32 14 9 30 -10 8 -19 21 -19 30 1 10 9 5 27 -14 25 -29
26 -29 40 -10 8 10 17 31 20 47 3 15 9 30 14 32 9 6 -4 -43 -20 -74 -16 -30
-55 -53 -83 -49 -24 3 -41 -24 -91 -140 -21 -47 -12 -72 25 -72 59 0 313 218
372 319 46 81 48 89 26 111 -22 22 -28 23 -50 10z"/>
<path d="M800 1181 c0 -6 5 -13 10 -16 6 -3 10 -17 10 -30 0 -13 -4 -27 -10
-30 -5 -3 -10 -17 -10 -29 0 -18 7 -25 30 -29 31 -7 42 -38 18 -53 -6 -4 -8
-3 -5 3 10 16 -15 32 -37 24 -19 -7 -19 -8 2 -29 18 -18 19 -22 6 -33 -16 -13
-19 -49 -4 -49 6 0 10 6 10 14 0 8 14 24 30 36 37 27 41 71 8 94 -12 9 -18 16
-12 16 6 0 28 -20 49 -45 24 -27 43 -41 49 -35 12 12 -20 61 -45 67 -21 6 -26
23 -6 22 15 -1 55 -17 45 -18 -4 -1 6 -24 23 -52 20 -31 35 -47 41 -41 15 15
-3 62 -31 77 -31 17 -25 19 15 5 21 -7 29 -17 30 -35 2 -29 44 -96 56 -89 15
9 8 41 -14 70 l-22 29 25 -22 c24 -22 49 -30 49 -17 0 3 -11 15 -25 26 -24 18
-24 21 -9 33 13 9 14 14 4 20 -8 5 -18 2 -26 -9 -8 -11 -14 -13 -19 -7 -3 6
-1 11 4 11 6 0 11 7 11 15 0 8 -7 15 -15 15 -8 0 -15 -7 -15 -15 0 -9 -6 -12
-17 -8 -11 4 -12 8 -5 11 17 5 15 32 -3 32 -8 0 -15 -7 -15 -15 0 -8 -4 -15
-10 -15 -5 0 -9 8 -7 18 1 9 -2 18 -8 19 -5 1 -9 -5 -9 -13 1 -8 1 -14 0 -14
0 0 -16 4 -34 9 -22 7 -43 6 -60 0 -22 -8 -25 -8 -14 3 7 7 18 13 25 13 7 0
12 7 12 15 0 8 -5 14 -12 13 -6 -2 -21 9 -31 22 -21 26 -32 32 -32 16z"/>
<path d="M5880 1169 c0 -9 -16 -26 -35 -38 -42 -24 -45 -52 -10 -79 28 -22 32
-32 13 -32 -7 0 -24 16 -37 36 -28 40 -61 63 -61 42 0 -21 30 -59 54 -68 18
-8 17 -9 -12 -9 -22 -1 -31 3 -26 10 3 6 2 14 -3 18 -5 3 -19 23 -32 44 -12
20 -27 37 -32 37 -20 0 -7 -43 20 -71 16 -16 28 -29 26 -29 -13 0 -85 37 -112
57 -41 32 -59 21 -19 -11 26 -20 27 -23 11 -30 -15 -5 -16 -9 -6 -19 10 -9 15
-9 24 4 10 16 14 15 54 -4 33 -16 42 -25 37 -39 -3 -12 0 -18 10 -18 9 0 16 6
16 13 0 8 18 12 54 13 41 0 53 -3 49 -13 -3 -8 -13 -11 -24 -8 -13 5 -19 1
-19 -10 0 -11 5 -15 16 -11 9 4 24 -5 39 -22 25 -28 33 -16 14 19 -6 12 -7 25
-2 32 5 7 10 24 12 40 2 23 -1 27 -22 27 -33 0 -55 26 -37 43 10 9 14 9 17 -1
3 -7 12 -16 22 -21 13 -8 17 -5 18 12 1 12 -3 25 -9 28 -8 5 -9 11 -1 21 20
25 24 55 8 55 -8 0 -15 -8 -15 -18z"/>
<path d="M5506 1011 c-3 -4 3 -16 14 -26 10 -9 24 -40 30 -69 13 -63 71 -138
91 -118 7 6 18 12 24 12 5 0 1 -7 -9 -15 -20 -15 -20 -15 -1 -29 14 -10 25
-11 38 -4 10 5 21 7 24 5 2 -3 -5 -11 -17 -17 -17 -9 -27 -8 -48 6 -26 17 -26
17 -59 -21 -36 -42 -47 -78 -15 -54 15 13 16 12 3 -4 -8 -9 -11 -21 -7 -24 4
-4 12 -1 17 7 8 11 12 12 16 3 7 -18 26 -16 19 2 -7 19 -1 19 19 -2 14 -14 18
-14 26 -2 6 11 0 17 -29 25 -40 12 -54 49 -18 49 16 0 25 -9 43 -44 1 -1 7 0
13 4 8 5 7 11 -2 23 -8 10 -9 13 -1 9 6 -4 14 -3 18 3 9 15 45 12 51 -5 4 -8
11 -12 17 -8 5 3 7 1 3 -5 -12 -19 10 -21 26 -2 19 21 14 30 -17 30 -13 0 -29
7 -36 17 -13 15 -12 15 7 5 11 -6 41 -10 66 -9 33 1 52 -3 67 -17 21 -19 21
-19 21 7 0 14 -5 29 -10 32 -7 4 -7 12 -2 18 5 7 9 22 10 34 l1 21 -36 -24
c-23 -16 -43 -22 -56 -18 -11 3 -37 0 -59 -7 -31 -10 -41 -10 -51 0 -9 10 -7
11 14 6 16 -4 30 -2 33 4 4 6 17 11 30 11 33 0 37 9 16 32 -15 17 -17 24 -7
39 7 11 15 19 19 19 5 0 8 5 8 11 0 7 -10 5 -25 -5 -24 -16 -26 -16 -34 7 -13
34 -37 50 -65 43 -18 -4 -29 -1 -39 15 -10 13 -24 20 -39 18 -12 -2 -33 2 -45
9 -26 14 -50 16 -57 3z"/>
<path d="M837 907 c-35 -53 -37 -58 -51 -204 -2 -18 -1 -33 3 -33 3 0 17 -20
30 -45 40 -75 97 -74 174 6 35 36 47 57 47 79 0 34 6 37 30 15 14 -13 19 -13
38 1 44 31 16 98 -32 76 -22 -10 -24 -8 -30 30 -5 30 -18 53 -50 85 -37 36
-49 43 -84 43 -37 0 -42 -4 -75 -53z m158 -16 c0 -3 10 -17 22 -30 18 -19 20
-27 11 -38 -9 -11 -8 -17 3 -24 12 -8 11 -11 -4 -20 -14 -8 -16 -14 -6 -25 6
-8 9 -17 5 -21 -3 -3 -6 -1 -6 5 0 7 -7 12 -16 12 -14 0 -15 -2 -3 -17 11 -13
11 -17 2 -20 -22 -8 -14 -26 7 -20 18 5 17 1 -7 -27 -20 -24 -32 -30 -41 -23
-7 5 -22 11 -35 12 -12 2 -31 7 -41 11 -13 5 -17 4 -12 -4 5 -8 2 -10 -10 -5
-31 11 14 26 60 19 l41 -7 -24 22 c-19 18 -25 19 -32 8 -8 -12 -11 -12 -19 1
-8 13 -11 13 -19 1 -6 -9 -8 -4 -7 17 1 17 5 34 9 38 4 4 2 14 -5 21 -9 11 -9
16 1 23 8 4 10 13 7 19 -10 16 0 13 19 -5 9 -9 19 -14 22 -10 4 3 1 12 -5 18
-15 15 -16 28 -2 28 6 0 10 -7 10 -15 0 -8 5 -15 10 -15 6 0 10 7 10 16 0 8 5
12 10 9 8 -5 7 -11 -1 -21 -17 -21 -3 -29 16 -10 10 9 14 24 11 33 -5 13 -4
14 9 3 12 -10 13 -16 4 -27 -19 -22 -2 -27 21 -5 l21 20 -27 21 c-18 15 -31
18 -39 11 -21 -17 -82 -20 -95 -5 -7 8 -16 12 -21 9 -5 -3 -6 2 -2 12 6 15 7
15 15 0 8 -14 12 -15 26 -4 13 11 14 11 8 0 -12 -20 66 -8 79 12 9 14 20 13
20 -3z"/>
<path d="M1587 939 c-35 -26 -35 -61 -1 -88 l26 -21 -32 -27 c-29 -24 -31 -28
-14 -34 17 -7 17 -8 2 -8 -26 -1 -22 -16 9 -40 30 -24 43 -20 22 6 -13 17 -13
17 7 1 26 -22 38 -23 30 -2 -5 14 -4 15 9 4 20 -17 32 -5 15 15 -15 18 -37 20
-42 3 -3 -8 -6 -9 -11 -1 -3 5 1 19 9 29 9 10 13 13 9 7 -8 -17 16 -17 40 0
12 10 14 16 7 21 -7 4 -12 4 -12 -1 0 -4 -4 -2 -9 6 -8 12 -12 12 -24 2 -13
-10 -15 -9 -10 8 3 12 -1 29 -8 39 -11 14 -9 13 9 -2 26 -22 41 -14 21 11 -13
17 -13 17 7 0 22 -18 36 -14 27 9 -4 10 0 12 11 8 12 -4 16 0 16 15 0 22 -14
28 -25 11 -3 -5 -11 -10 -18 -10 -6 0 -2 6 9 14 10 8 16 17 12 21 -7 8 -64
-33 -61 -43 1 -4 0 -9 -2 -10 -2 -2 -2 3 -1 12 1 9 11 22 22 30 10 8 16 18 12
22 -5 4 -18 -1 -30 -12 -19 -16 -20 -16 -9 -1 21 26 8 30 -22 6z"/>
<path d="M1300 869 c0 -19 -4 -21 -31 -15 -21 4 -35 1 -46 -9 -8 -9 -23 -13
-32 -10 -25 8 -59 -20 -44 -35 13 -14 37 -4 28 11 -4 5 4 9 17 9 13 0 29 4 37
9 18 11 58 -13 66 -39 3 -11 11 -18 18 -16 7 1 9 1 5 -1 -14 -8 -8 -21 10 -26
9 -2 7 -3 -5 -2 -12 1 -24 -4 -27 -12 -4 -10 1 -12 17 -8 15 4 32 -1 50 -15
25 -20 47 -20 47 0 0 5 -12 16 -27 24 -16 8 -23 15 -17 16 6 0 23 -9 37 -20
27 -21 57 -27 57 -10 0 6 -11 16 -25 22 -14 6 -25 14 -25 18 0 4 11 12 25 18
26 12 34 32 13 32 -7 0 -24 -9 -38 -20 -14 -11 -36 -19 -50 -19 -22 1 -21 2 8
10 18 6 36 17 39 25 9 25 -4 27 -35 5 -33 -23 -57 -27 -67 -11 -4 6 5 10 20
10 33 0 105 73 78 79 -9 1 -29 -11 -45 -28 -16 -17 -39 -31 -51 -30 l-22 0 21
9 c29 12 40 30 23 41 -22 14 -29 11 -29 -12z"/>
<path d="M5185 730 c-12 -13 -15 -24 -8 -32 5 -7 18 -35 27 -63 10 -27 27 -65
37 -83 21 -37 16 -61 -8 -37 -25 26 -28 7 -3 -20 13 -14 19 -25 14 -25 -5 0
-22 14 -37 31 -15 18 -33 29 -41 26 -8 -3 -22 3 -32 14 -19 21 -50 27 -38 7 5
-8 0 -7 -11 2 -14 11 -19 12 -22 2 -3 -6 -9 -10 -14 -6 -5 3 -9 -2 -9 -10 0
-8 -9 -18 -21 -21 -19 -6 -19 -8 -5 -24 18 -20 21 -41 6 -41 -5 0 -10 -4 -10
-10 0 -5 8 -10 18 -10 16 -1 16 -1 0 -11 -34 -19 -17 -29 51 -29 46 0 71 4 74
13 3 6 6 7 6 2 1 -10 722 -11 748 -1 7 3 13 1 13 -5 0 -5 -6 -12 -12 -14 -10
-4 -666 -14 -763 -12 -11 0 -45 0 -75 1 -45 1 -55 -2 -58 -16 -3 -16 5 -18 57
-18 34 0 63 -5 67 -11 5 -9 -7 -10 -43 -5 -52 6 -83 1 -83 -15 0 -5 12 -8 28
-7 48 3 102 -2 102 -10 0 -4 -28 -7 -62 -7 -40 0 -63 -4 -65 -12 -3 -9 4 -11
24 -7 15 3 46 1 68 -4 39 -10 37 -10 -27 -11 -48 -1 -68 -5 -68 -14 0 -9 12
-11 40 -9 22 2 53 -1 70 -7 23 -8 30 -7 29 2 -1 7 -1 37 0 67 l1 55 457 -2
c452 -2 485 0 467 29 -3 4 -36 8 -75 8 -39 0 -69 4 -69 10 0 6 32 10 75 10 43
0 75 4 75 10 0 6 -10 10 -22 11 l-23 0 23 10 c29 11 20 29 -16 30 -16 0 -21 3
-12 6 37 15 55 69 19 60 -15 -4 -18 -2 -10 7 17 21 -1 27 -23 9 -12 -10 -15
-11 -8 -3 17 20 15 27 -8 33 -13 3 -31 -4 -49 -19 -37 -30 -51 -30 -51 0 0 14
-5 28 -10 31 -7 4 -7 12 0 25 17 32 12 45 -10 25 -21 -19 -26 -45 -11 -60 7
-7 -13 -10 -53 -10 -47 0 -62 3 -59 13 3 6 -2 12 -12 12 -11 0 -15 -6 -10 -19
4 -15 -3 -22 -36 -35 -30 -12 -45 -14 -54 -6 -10 8 -21 6 -44 -8 -28 -17 -30
-21 -16 -32 10 -9 12 -17 6 -23 -6 -6 -18 -1 -33 15 -112 118 -305 268 -345
268 -5 0 -18 -9 -28 -20z"/>
<path d="M5801 706 c-13 -14 -18 -26 -13 -30 6 -3 19 4 29 17 16 21 20 22 32
10 11 -13 11 -17 -5 -31 -15 -14 -16 -14 -6 -1 17 23 2 32 -20 13 -15 -14 -16
-20 -5 -32 10 -13 9 -14 -3 -7 -8 5 -23 19 -33 32 -21 26 -42 31 -33 8 5 -13
2 -13 -20 1 -35 24 -42 10 -8 -19 25 -21 27 -27 15 -41 -10 -12 -17 -14 -27
-5 -11 9 -14 7 -14 -7 -1 -18 -1 -18 -16 1 -15 20 -16 20 -29 1 -8 -10 -16
-24 -19 -30 -3 -7 -8 -6 -15 4 -8 12 -13 12 -31 -5 -16 -15 -23 -16 -33 -6 -9
10 -8 11 6 6 9 -4 17 -3 17 3 0 6 -4 12 -10 14 -6 2 -6 8 0 18 8 13 10 12 10
-2 0 -10 5 -18 10 -18 16 0 11 26 -9 44 -18 16 -19 15 -25 -17 -4 -19 -15 -42
-26 -52 -21 -19 -18 -35 6 -35 8 0 12 4 9 10 -3 5 0 7 8 4 8 -3 18 -1 21 5 4
6 20 8 35 5 21 -4 32 -1 42 13 9 12 26 19 48 18 32 0 49 16 67 63 1 1 14 -4
30 -13 39 -20 51 -19 66 5 7 11 18 20 24 20 20 0 23 27 5 44 -25 23 -54 20
-80 -8z"/>
<path d="M1072 678 c-7 -7 -12 -17 -12 -24 0 -26 71 -160 93 -175 5 -4 -3 -9
-17 -11 -14 -3 -26 -1 -26 5 0 5 -11 2 -25 -7 -13 -9 -32 -16 -42 -16 -16 1
-16 2 2 13 11 6 22 12 25 12 11 1 30 17 30 26 0 5 -9 9 -20 9 -11 0 -20 -5
-20 -11 0 -5 -4 -7 -10 -4 -5 3 2 17 18 30 21 19 23 24 10 25 -9 0 -20 -4 -23
-10 -3 -5 -16 -15 -28 -21 -18 -10 -17 -7 6 14 25 25 35 56 21 70 -8 8 -40
-32 -53 -66 -6 -14 -20 -31 -32 -38 l-22 -12 21 28 c42 53 22 76 -21 25 -31
-36 -37 -38 -29 -7 5 21 4 21 -33 -7 -36 -28 -38 -28 -32 -7 4 16 -2 29 -24
48 -16 15 -29 32 -29 40 0 7 -7 13 -15 13 -15 0 -11 -23 7 -47 6 -7 4 -19 -4
-32 -10 -16 -10 -23 0 -33 10 -10 14 -8 18 10 8 27 24 29 24 3 0 -25 -37 -33
-66 -14 -13 8 -24 19 -24 23 0 12 -28 20 -46 13 -8 -3 -13 -12 -9 -21 4 -12 3
-13 -9 -3 -16 13 -40 6 -31 -9 8 -13 -82 -26 -197 -29 -21 -1 -28 -6 -28 -21
0 -11 4 -20 10 -20 5 0 6 8 3 17 -5 13 -2 15 11 10 10 -4 19 -7 22 -7 2 0 1
-7 -2 -15 -4 -8 -14 -15 -24 -15 -11 0 -22 -6 -27 -12 -8 -13 -9 -18 -12 -38
0 -5 -8 -10 -16 -10 -16 0 -16 20 0 32 6 5 6 8 -1 8 -8 0 -10 13 -7 35 4 32 3
35 -21 35 -23 0 -26 -3 -20 -25 8 -34 -4 -84 -16 -65 -7 12 -11 9 -18 -10 -5
-14 -8 -27 -6 -29 1 -1 50 0 108 4 100 7 106 9 106 29 0 17 11 26 45 38 25 10
45 13 45 8 0 -5 -8 -11 -17 -14 -10 -3 -6 -4 10 -2 36 4 34 -11 -4 -26 -25
-11 73 -12 528 -10 549 4 584 6 566 35 -3 5 4 4 16 -3 12 -6 19 -15 16 -21 -4
-5 1 -9 9 -9 12 0 15 12 13 55 -1 30 -3 55 -5 55 -1 0 -11 -5 -22 -12 -10 -7
-23 -9 -27 -5 -4 5 -1 12 7 17 11 7 8 10 -12 15 -16 4 -25 12 -22 20 5 13 -38
30 -66 26 -8 -1 -28 -17 -43 -34 -16 -18 -32 -30 -35 -29 -45 25 -44 24 -32 3
6 -12 16 -21 22 -21 6 0 9 -3 5 -6 -11 -11 -77 51 -77 73 0 12 -6 24 -12 27
-7 3 -3 3 9 1 25 -7 40 12 24 28 -8 8 -14 8 -23 -1 -23 -23 -88 -14 -140 19
-57 37 -154 78 -183 79 -12 0 -26 -5 -33 -12z"/>
<path d="M89 434 c-1 -19 -3 -38 -4 -44 -1 -5 -3 -16 -4 -24 -1 -17 -58 -19
-58 -2 1 37 -4 56 -13 51 -5 -3 -10 -22 -10 -41 0 -34 0 -34 45 -34 29 0 45 4
45 13 0 8 3 8 9 -2 8 -12 12 -12 25 2 18 17 22 42 6 32 -5 -3 -10 -2 -10 2 0
14 38 34 45 23 3 -6 3 -10 -2 -10 -4 0 -9 -11 -9 -25 -2 -20 3 -25 21 -25 13
0 26 6 28 13 4 10 6 10 6 0 1 -18 49 -16 67 1 20 21 17 28 -6 16 -16 -9 -20
-8 -20 5 0 8 5 15 10 15 6 0 10 5 10 11 0 5 -4 7 -10 4 -5 -3 -10 0 -10 8 0 8
6 15 13 14 6 0 22 1 35 1 21 2 22 4 8 17 -8 8 -30 15 -49 15 -36 0 -47 -15
-47 -68 0 -19 -2 -21 -13 -10 -8 7 -12 20 -9 30 3 13 -1 18 -17 18 -23 0 -29
16 -8 23 6 2 -7 5 -30 5 -42 1 -43 0 -44 -34z"/>
<path d="M790 359 c-158 -7 -320 -26 -320 -38 0 -4 31 -4 70 -1 38 3 71 2 72
-1 2 -4 35 -4 73 0 39 3 276 5 527 4 406 -1 457 0 462 14 4 9 5 18 2 20 -7 7
-713 8 -886 2z"/>
<path d="M5905 332 c-2 -2 -170 -4 -374 -4 l-371 -1 0 -52 c0 -51 1 -52 28
-49 15 1 184 2 375 3 229 1 346 4 342 11 -3 6 -1 10 4 10 6 0 11 -4 11 -10 0
-6 32 -10 75 -10 78 0 109 19 33 21 -54 1 -101 8 -110 17 -4 4 29 6 72 4 53
-2 80 0 80 7 0 7 -27 11 -69 11 -41 0 -73 5 -77 11 -5 8 14 10 70 7 57 -4 76
-2 76 8 0 9 -24 13 -81 16 -44 2 -82 1 -84 0z"/>
<path d="M648 303 c-21 -2 -38 -7 -38 -11 0 -4 196 -6 436 -5 266 2 443 -1
453 -7 10 -6 -131 -9 -405 -9 -231 0 -437 -3 -457 -6 -58 -11 -32 -27 35 -21
34 2 57 1 52 -4 -5 -5 -34 -10 -64 -12 -31 -2 -54 -7 -52 -13 1 -6 27 -9 57
-7 35 2 55 0 55 -7 0 -7 -22 -11 -53 -11 -30 0 -57 -3 -61 -7 -4 -5 -29 -13
-54 -19 -38 -9 -41 -12 -17 -12 17 0 55 3 85 8 31 4 59 4 65 -1 5 -5 -10 -9
-38 -9 -35 0 -47 -4 -47 -15 0 -9 -10 -16 -27 -16 -24 -2 -25 -2 -5 -6 24 -5
31 -33 8 -33 -8 0 -18 -5 -22 -12 -4 -7 -3 -8 4 -4 16 10 34 -3 25 -17 -4 -6
-8 -20 -8 -30 -2 -18 7 -18 189 -11 105 4 202 8 216 7 14 0 124 0 245 -1 121
0 261 -1 312 -2 55 -1 94 3 98 9 3 6 -2 11 -12 12 -16 0 -16 1 2 8 11 5 23 7
28 4 4 -2 7 0 7 6 0 5 -5 11 -12 13 -9 3 -9 6 0 12 7 4 12 2 12 -4 0 -6 5 -8
10 -5 12 8 13 -5 0 -25 -10 -17 4 -30 34 -30 15 0 17 6 14 40 -2 27 1 41 11
45 22 9 -29 47 -56 42 -15 -3 -23 1 -23 9 0 11 -20 14 -77 16 -75 1 -76 1 -23
7 30 3 73 3 94 -2 56 -11 67 -3 23 18 -27 13 -53 16 -97 13 -33 -2 -60 -1 -60
4 0 8 60 13 119 9 24 -2 32 1 29 11 -3 9 -25 13 -69 15 -86 2 -89 2 -89 11 0
4 38 6 85 4 56 -2 85 0 85 7 0 7 -27 11 -71 11 -43 0 -75 5 -83 13 -10 10 4
11 71 8 56 -2 83 1 83 8 0 8 -139 11 -492 9 -271 -1 -510 -3 -530 -5z"/>
<path d="M5436 212 c-2 -1 -98 -2 -214 -3 -120 0 -214 -4 -217 -10 -4 -5 13
-9 37 -10 24 0 52 -5 63 -10 16 -8 15 -8 -8 -4 -44 9 -94 -4 -100 -26 -3 -11
1 -23 10 -28 13 -7 13 -9 -2 -15 -14 -5 -15 -9 -6 -20 9 -11 9 -16 0 -21 -8
-6 -7 -10 2 -16 10 -6 11 -9 2 -9 -7 0 -13 -5 -13 -11 0 -6 15 -8 44 -4 27 4
52 2 66 -5 12 -7 25 -8 29 -4 3 5 24 10 46 10 52 2 388 3 578 2 81 0 150 2
152 4 3 2 28 1 57 -3 74 -11 98 -10 98 0 0 5 -10 12 -22 14 -21 4 -21 4 3 6
22 1 26 6 26 31 0 17 -5 30 -11 30 -6 0 -5 4 3 9 17 11 41 -9 41 -33 0 -9 5
-16 11 -16 5 0 7 5 4 10 -3 6 -2 10 4 10 5 0 13 -5 16 -10 3 -6 12 -10 18 -10
7 0 4 5 -6 11 -10 6 -22 22 -27 35 -6 14 -18 27 -27 31 -10 4 -20 10 -23 15
-3 4 -35 10 -70 14 -88 8 -88 14 -2 14 76 0 103 19 30 21 -111 2 -590 4 -592
1z"/>
<path d="M6747 174 c-10 -10 -147 -21 -147 -12 0 11 -103 -3 -119 -16 -11 -8
-15 -8 -19 3 -3 10 -9 7 -18 -10 -11 -19 -13 -20 -14 -6 0 14 -4 16 -17 9 -10
-6 -29 -6 -47 -1 -53 15 -73 11 -80 -15 -7 -28 2 -58 15 -50 13 8 11 -10 -3
-24 -9 -9 -8 -12 5 -12 9 0 17 6 17 14 0 10 11 12 40 9 25 -3 40 -1 40 6 0 6
-5 11 -11 11 -5 0 -7 5 -3 11 4 8 9 7 16 -2 5 -9 6 -4 2 14 -4 18 -2 27 6 27
9 0 10 -14 5 -51 -7 -51 -7 -52 16 -46 13 4 29 7 34 7 6 0 4 4 -4 9 -12 8 -12
15 3 45 15 33 20 35 56 33 22 -1 40 -6 40 -12 0 -19 -16 -35 -38 -40 -57 -11
-56 -34 1 -30 23 1 52 3 65 4 21 1 23 5 18 39 -4 28 -3 33 5 20 5 -10 20 -18
32 -17 18 0 19 2 5 7 -24 10 -9 28 31 35 l33 7 -4 -45 c-3 -49 -1 -50 51 -31
22 8 30 15 23 20 -7 4 -9 22 -5 51 4 36 3 45 -9 45 -8 0 -18 -3 -21 -6z"/>
<path d="M340 95 c0 -9 -4 -13 -10 -10 -5 3 -18 1 -27 -4 -14 -8 -15 -10 -3
-11 13 0 13 -1 0 -11 -11 -8 -12 -12 -2 -16 6 -2 12 -9 12 -14 0 -6 -7 -6 -17
0 -10 5 -22 9 -28 10 -5 1 -9 11 -9 23 0 15 8 24 24 29 15 4 1 6 -34 5 -39 -1
-61 -7 -64 -15 -3 -8 -7 -9 -11 -3 -3 5 -22 11 -41 12 -64 4 -70 2 -70 -26 0
-14 4 -23 10 -19 6 4 11 -6 11 -22 l1 -28 7 30 c6 30 38 48 38 21 0 -8 -6 -12
-14 -9 -9 3 -11 0 -7 -10 7 -19 34 -24 144 -26 56 -1 91 2 95 9 4 6 13 9 21 6
8 -3 14 1 14 8 0 8 -7 16 -15 20 -22 8 -18 29 4 23 10 -2 25 -1 32 4 10 6 3 9
-19 9 -18 0 -31 4 -27 9 3 5 1 12 -5 16 -5 3 -10 -1 -10 -10z"/>
</g>
</svg>
